<svg xmlns="http://www.w3.org/2000/svg" viewBox="0 0 1600 1000" role="img" aria-labelledby="t d">
<title id="t">Záhrada s nápadom</title><desc id="d">Náhradný obrázok článku Záhrada s nápadom.</desc>
<defs><linearGradient id="g" x1="0" y1="0" x2="1" y2="1"><stop stop-color="#edf3e8"/><stop offset="1" stop-color="#e6d9bc"/></linearGradient></defs>
<rect width="1600" height="1000" fill="url(#g)"/>
<circle cx="1250" cy="210" r="190" fill="#c7d4a3" opacity=".65"/>
<circle cx="1380" cy="720" r="250" fill="#d7b87c" opacity=".45"/>
<path d="M0 780 C260 690 520 820 790 735 S1270 665 1600 760 V1000 H0Z" fill="#71915c"/>
<g fill="none" stroke="#31533a" stroke-width="24" stroke-linecap="round">
<path d="M720 700 C720 570 720 430 720 300"/>
<path d="M720 475 C625 415 555 350 515 275"/>
<path d="M720 430 C825 365 900 300 945 225"/>
</g>
<g fill="#91aa68"><ellipse cx="500" cy="260" rx="95" ry="55" transform="rotate(-28 500 260)"/><ellipse cx="950" cy="215" rx="100" ry="58" transform="rotate(28 950 215)"/><ellipse cx="600" cy="395" rx="90" ry="52" transform="rotate(20 600 395)"/><ellipse cx="845" cy="350" rx="92" ry="54" transform="rotate(-20 845 350)"/></g>
<text x="100" y="155" font-family="Georgia,serif" font-size="78" font-weight="700" fill="#244333">Záhrada s nápadom</text>
<text x="100" y="225" font-family="Arial,sans-serif" font-size="34" fill="#54705f">Praktické rady pre záhradu, dom a dielňu</text>
</svg>