<svg xmlns="http://www.w3.org/2000/svg" viewBox="0 0 512 512">
  <defs>
    <linearGradient id="bg" x1="0" y1="0" x2="1" y2="1">
      <stop offset="0" stop-color="#345f40"/>
      <stop offset="1" stop-color="#183523"/>
    </linearGradient>
    <linearGradient id="gold" x1="0" y1="0" x2="1" y2="1">
      <stop offset="0" stop-color="#f0d895"/>
      <stop offset="1" stop-color="#c79b42"/>
    </linearGradient>
  </defs>
  <rect width="512" height="512" rx="118" fill="url(#bg)"/>
  <circle cx="256" cy="212" r="128" fill="rgba(255,255,255,.07)"/>
  <path d="M256 330c-8-66 8-124 50-168 32-34 72-55 111-61-6 48-28 94-65 129-29 28-61 51-96 100Z" fill="#eef7e8"/>
  <path d="M246 330c-9-55-33-99-72-130-24-20-51-32-80-38 6 43 25 81 57 110 28 25 60 43 95 58Z" fill="#b6d674"/>
  <path d="M252 326c12-73 47-134 111-181M247 326c-17-53-46-95-89-125" fill="none" stroke="#24482f" stroke-width="13" stroke-linecap="round"/>
  <g transform="translate(320 316)">
    <circle cx="72" cy="72" r="62" fill="#fffdf7"/>
    <path d="M72 28v88M28 72h88" stroke="url(#gold)" stroke-width="18" stroke-linecap="round"/>
  </g>
</svg>